<svg xmlns="http://www.w3.org/2000/svg"  viewBox="0 0 512 512" width="100px" height="100px"><path fill="#24afd6" d="M352,488H160v-9.585a20,20,0,0,1,13.675-18.973l6.974-2.325A40,40,0,0,0,208,419.17V408l8-8h80l8,8v11.17a40,40,0,0,0,27.351,37.947l6.974,2.325A20,20,0,0,1,352,478.415Z"/><rect width="464" height="280" x="24" y="128" fill="#ecfbf9" rx="10" ry="10"/><path fill="#57cee6" d="M24,336H488a0,0,0,0,1,0,0v62a10,10,0,0,1-10,10H34a10,10,0,0,1-10-10V336a0,0,0,0,1,0,0Z"/><g><rect width="400" height="336" x="56" y="24" fill="#fffdfa" rx="10" ry="10"/><path fill="#fac850" d="M456,72H56V34A10,10,0,0,1,66,24H446a10,10,0,0,1,10,10Z"/><rect width="16" height="16" x="416" y="40" fill="#fffdfa"/><rect width="16" height="16" x="144" y="40" fill="#fffdfa"/><rect width="16" height="16" x="80" y="40" fill="#fffdfa"/><rect width="16" height="16" x="112" y="40" fill="#fffdfa"/><rect width="224" height="64" x="144" y="104" fill="#c85aed" rx="20" ry="20"/><rect width="224" height="128" x="144" y="200" fill="#c85aed"/><rect width="40" height="16" x="168" y="224" fill="#f5f1ff"/><rect width="56" height="16" x="224" y="224" fill="#f5f1ff"/><rect width="24" height="16" x="168" y="256" fill="#f5f1ff"/><rect width="72" height="16" x="208" y="256" fill="#f5f1ff"/><rect width="96" height="16" x="168" y="288" fill="#f5f1ff"/><rect width="16" height="32" x="168" y="120" fill="#f5f1ff"/></g><path fill="#fac850" d="M401.372,198.163l-19.187-11.512a32.03,32.03,0,1,0-8.951,13.289l19.906,11.944a8,8,0,0,0,10.976-2.744h0A8,8,0,0,0,401.372,198.163Z"/></svg>