<svg xmlns="http://www.w3.org/2000/svg"  viewBox="0 0 256 256" width="64px" height="64px"><path fill="#6770e6" d="M248.897,197.574H7.129c-3.93,0-7.116-3.186-7.116-7.116V7.116C0.013,3.186,3.199,0,7.129,0h241.767 c3.93,0,7.116,3.186,7.116,7.116v183.342C256.013,194.388,252.827,197.574,248.897,197.574z"/><path fill="#8f95e6" d="M248.897,0H7.129c-3.93,0-7.116,3.186-7.116,7.116v7C0.013,10.186,3.199,7,7.129,7h241.768 c3.93,0,7.116,3.186,7.116,7.116v-7C256.013,3.186,252.827,0,248.897,0z"/><path fill="#ffefe4" d="M15.013,175.458V24.596c0-5.3,4.296-9.596,9.596-9.596h206.808c5.3,0,9.596,4.296,9.596,9.596v150.862 c0,3.93-3.186,7.116-7.116,7.116H22.129C18.199,182.574,15.013,179.388,15.013,175.458z"/><polygon fill="#6770e6" points="44.666,135.155 44.666,182.574 100.222,182.574 100.222,107.309"/><polygon fill="#d476e2" points="100.222,107.309 100.222,182.574 155.778,182.574 155.778,79.462"/><polygon fill="#69ebfc" points="155.778,182.574 211.334,182.574 211.334,51.616 155.778,79.462"/><path fill="#ff8354" d="M228.583,49.42c0.026-0.135,0.053-0.269,0.073-0.404c0.025-0.167,0.04-0.336,0.056-0.504 c0.013-0.145,0.029-0.289,0.035-0.433c0.007-0.16,0.005-0.32,0.005-0.48c-0.001-0.151,0.001-0.302-0.007-0.452 c-0.008-0.155-0.026-0.31-0.042-0.466c-0.016-0.153-0.029-0.306-0.052-0.457c-0.023-0.152-0.055-0.303-0.086-0.454 c-0.031-0.153-0.06-0.307-0.099-0.458c-0.037-0.145-0.082-0.288-0.126-0.431c-0.048-0.157-0.095-0.313-0.151-0.467 c-0.049-0.134-0.104-0.266-0.159-0.399c-0.067-0.16-0.134-0.32-0.209-0.476c-0.024-0.051-0.042-0.103-0.068-0.154 c-0.04-0.08-0.088-0.152-0.13-0.23c-0.079-0.147-0.16-0.293-0.246-0.435c-0.082-0.135-0.167-0.266-0.254-0.395 c-0.083-0.123-0.168-0.244-0.257-0.363c-0.101-0.135-0.204-0.266-0.311-0.395c-0.089-0.107-0.18-0.211-0.273-0.314 c-0.115-0.126-0.231-0.249-0.352-0.368c-0.1-0.099-0.203-0.195-0.307-0.289c-0.122-0.11-0.245-0.217-0.372-0.32 c-0.115-0.094-0.233-0.184-0.353-0.272c-0.126-0.093-0.253-0.183-0.382-0.269c-0.129-0.086-0.26-0.167-0.394-0.247 c-0.132-0.079-0.265-0.154-0.401-0.226c-0.135-0.072-0.273-0.141-0.412-0.207c-0.147-0.069-0.296-0.134-0.447-0.196 c-0.132-0.054-0.265-0.106-0.401-0.155c-0.17-0.061-0.342-0.115-0.516-0.167c-0.078-0.023-0.151-0.053-0.229-0.074l-36.429-9.761 c-5.072-1.361-10.283,1.65-11.642,6.722c-1.359,5.07,1.65,10.283,6.722,11.642l12.271,3.288L32.485,130.627 c-4.693,2.353-6.591,8.064-4.238,12.758c1.667,3.326,5.021,5.248,8.506,5.248c1.432,0,2.885-0.324,4.252-1.01l163.592-81.997 l-4.284,15.988c-1.359,5.07,1.65,10.283,6.722,11.642c0.824,0.221,1.651,0.326,2.466,0.326c4.197,0,8.038-2.801,9.176-7.048 l9.761-36.429c0.014-0.052,0.02-0.104,0.033-0.155C228.514,49.775,228.55,49.598,228.583,49.42z"/><rect width="60.948" height="38.435" x="98.151" y="197.574" fill="#5861c7"/><path fill="#6770e6" d="M187.918,256H69.617c-5.52,0-9.995-4.475-9.995-9.995v0c0-5.52,4.475-9.995,9.995-9.995h118.301 c5.52,0,9.995,4.475,9.995,9.995v0C197.913,251.525,193.438,256,187.918,256z"/><path fill="#5861c7" d="M187.918,249H69.617c-4.287,0-7.933-2.704-9.353-6.495c-0.409,1.091-0.643,2.267-0.643,3.5v0 c0,5.52,4.475,9.995,9.995,9.995h118.301c5.52,0,9.995-4.475,9.995-9.995v0c0-1.233-0.234-2.409-0.643-3.5 C195.851,246.296,192.205,249,187.918,249z"/><path fill="#ff8354" d="M252.477,252.477L252.477,252.477c-4.697,4.697-12.313,4.697-17.01,0L185.7,202.71l17.01-17.01l49.768,49.768 C257.174,240.164,257.174,247.78,252.477,252.477z"/><circle cx="165.947" cy="165.947" r="52.947" fill="#ff8354"/><circle cx="165.947" cy="165.947" r="37.439" fill="#a1f1fc"/><path fill="#6770e6" d="M204.69,221.7l30.777,30.777c4.697,4.697,12.313,4.697,17.01,0l0,0c4.697-4.697,4.697-12.313,0-17.01 L221.7,204.69L204.69,221.7z"/><path fill="#5861c7" d="M254.899,238.972c-0.58,1.268-1.378,2.461-2.422,3.505c-2.341,2.341-5.408,3.514-8.477,3.521V246h-15.01 l6.477,6.477c4.697,4.697,12.313,4.697,17.01,0C256.13,248.824,256.929,243.41,254.899,238.972z"/><path fill="#d476e2" d="M58.217,70.882c-1.685,0-3.293-0.241-4.835-0.715c-1.537-0.478-2.945-1.189-4.227-2.141 c-1.283-0.952-2.395-2.114-3.347-3.49c-0.206-0.298-0.403-0.606-0.591-0.925c-1.142-1.943-0.191-4.458,1.907-5.283l0,0 c1.692-0.666,3.654-0.037,4.557,1.541c0.43,0.752,0.944,1.43,1.541,2.035c1.278,1.296,2.963,1.948,5.05,1.948 c0.769,0,1.51-0.103,2.225-0.304c0.715-0.201,1.354-0.492,1.922-0.876c0.568-0.384,1.014-0.871,1.345-1.457 c0.331-0.585,0.492-1.265,0.492-2.033c0-0.733-0.125-1.39-0.384-1.975c-0.255-0.585-0.684-1.135-1.287-1.649 c-0.603-0.509-1.394-1.005-2.364-1.484c-0.97-0.474-2.167-0.965-3.597-1.479l-2.413-0.88c-1.064-0.366-2.136-0.858-3.213-1.484 c-1.081-0.621-2.06-1.372-2.936-2.248c-0.88-0.88-1.604-1.913-2.172-3.106c-0.568-1.189-0.849-2.534-0.849-4.035 c0-1.537,0.299-2.972,0.903-4.312c0.608-1.332,1.466-2.507,2.583-3.512c1.117-1.005,2.453-1.792,4.008-2.359 c1.555-0.568,3.285-0.854,5.188-0.854c1.98,0,3.687,0.268,5.135,0.795c1.448,0.532,2.672,1.211,3.678,2.033 c0.37,0.301,0.896,0.795,1.445,1.42c1.606,1.828,0.935,4.702-1.309,5.644l0,0c-1.447,0.608-3.099,0.186-4.117-1.008 c-0.223-0.261-0.468-0.513-0.738-0.756c-0.97-0.88-2.301-1.318-3.982-1.318c-1.613,0-2.949,0.375-4.008,1.126 c-1.064,0.751-1.595,1.729-1.595,2.936c0,1.171,0.514,2.172,1.537,2.994c1.028,0.822,2.654,1.618,4.889,2.386l2.471,0.827 c1.573,0.55,3.012,1.18,4.312,1.895c1.296,0.711,2.413,1.564,3.347,2.552c0.934,0.988,1.649,2.114,2.141,3.378 c0.496,1.26,0.742,2.717,0.742,4.366c0,2.051-0.411,3.816-1.233,5.295c-0.822,1.484-1.877,2.704-3.159,3.655 c-1.283,0.952-2.726,1.662-4.335,2.141C61.327,70.64,59.754,70.882,58.217,70.882z"/><path fill="#d476e2" d="M84.226,37.715v9.112h12.242c1.941,0,3.515,1.574,3.515,3.515v0c0,1.941-1.574,3.515-3.515,3.515H84.226v9.116 h13.998c1.941,0,3.515,1.574,3.515,3.515l0,0c0,1.941-1.574,3.515-3.515,3.515H80.163c-1.851,0-3.351-1.5-3.351-3.351V34.036 c0-1.851,1.5-3.351,3.351-3.351h18.061c1.941,0,3.515,1.574,3.515,3.515v0c0,1.941-1.574,3.515-3.515,3.515H84.226z"/><path fill="#d476e2" d="M124.845,70.882c-2.927,0-5.644-0.532-8.151-1.595c-2.511-1.059-4.679-2.516-6.511-4.366 c-1.828-1.846-3.267-4.026-4.308-6.533c-1.046-2.507-1.564-5.188-1.564-8.044c0-2.856,0.518-5.537,1.564-8.044 c1.041-2.507,2.48-4.688,4.308-6.538c1.832-1.846,4-3.302,6.511-4.361c2.507-1.064,5.224-1.595,8.151-1.595 c2.931,0,5.648,0.532,8.155,1.595c2.507,1.059,4.679,2.516,6.506,4.361c1.832,1.85,3.267,4.031,4.312,6.538 c1.041,2.507,1.564,5.188,1.564,8.044c0,2.856-0.523,5.537-1.564,8.044c-1.046,2.507-2.48,4.688-4.312,6.533 c-1.828,1.85-4,3.307-6.506,4.366C130.494,70.35,127.777,70.882,124.845,70.882z M124.845,63.852c1.832,0,3.544-0.331,5.135-0.988 c1.595-0.661,2.985-1.577,4.174-2.748c1.189-1.171,2.123-2.587,2.802-4.254c0.675-1.667,1.014-3.503,1.014-5.519 s-0.34-3.852-1.014-5.519c-0.679-1.667-1.613-3.083-2.802-4.254c-1.189-1.171-2.578-2.087-4.174-2.748 c-1.591-0.657-3.302-0.988-5.135-0.988c-1.828,0-3.539,0.331-5.135,0.988c-1.591,0.661-2.981,1.577-4.169,2.748 c-1.193,1.171-2.127,2.587-2.802,4.254c-0.679,1.667-1.014,3.503-1.014,5.519s0.335,3.852,1.014,5.519 c0.675,1.667,1.609,3.083,2.802,4.254c1.189,1.171,2.578,2.087,4.169,2.748C121.306,63.522,123.018,63.852,124.845,63.852z"/></svg>